<?xml version="1.0" encoding="UTF-8" standalone="no"?>
<!-- Created with Inkscape (http://www.inkscape.org/) -->

<svg
   width="253.11494mm"
   height="63.500004mm"
   viewBox="0 0 253.11494 63.500004"
   version="1.1"
   id="svg4686"
   xmlns="http://www.w3.org/2000/svg"
   xmlns:svg="http://www.w3.org/2000/svg">
  <defs
     id="defs4683" />
  <g
     id="layer1"
     transform="translate(161.98822,33.781612)">
    <rect
       y="-33.781612"
       x="-161.73428"
       height="63.500004"
       width="252.08333"
       id="rect5020-8-5-86-7-6-0-2-7-8-7-52-6-6-38-8-5-6-2-2-2-52-6-8-5-6-7-8"
       style="color:#000000;display:inline;overflow:visible;visibility:visible;fill:none;fill-opacity:0;stroke:none;stroke-width:0.515414;marker:none;enable-background:accumulate" />
    <g
       id="g7947-4-9-9"
       transform="matrix(0.26458333,0,0,0.26458333,-89.025174,1184.295)">
      <path
         style="fill:#ff0000;stroke:none;stroke-width:2;stroke-dasharray:none"
         d="m 197.77632,-4478.1649 27.82631,-8.8111 c 0,0 -6.64607,-33.159 -6.64607,-30.349 0,2.8101 -2.21535,13.4884 0,2.8101 2.21535,-10.6783 2.76919,-23.0427 2.76919,-23.0427 l -13.18557,-1.1241 c 0,0 -0.68823,14.2151 -1.24206,20.9593 -0.55384,6.7442 -9.5218,39.5575 -9.5218,39.5575 z"
         id="path5039-8-9-2" />
      <ellipse
         style="fill:#000000;stroke:none;stroke-width:2;stroke-dasharray:none"
         id="path5369-3-1-9"
         cx="216.20006"
         cy="-4544.5366"
         rx="5.4827209"
         ry="6.1598029" />
      <path
         style="fill:#000000;stroke:#000000;stroke-width:2;stroke-dasharray:none;stroke-opacity:1"
         d="m 207.04903,-4516.763 13.01521,-1.124 v 0"
         id="path6337-9-2-3" />
      <path
         style="fill:none;stroke:#000000;stroke-width:2;stroke-dasharray:none;stroke-opacity:1"
         d="m 214.12447,-4548.4985 -18.75569,0.7325 12.79801,13.4307"
         id="path7877-8-6-2" />
      <path
         style="fill:none;stroke:#000000;stroke-width:2;stroke-dasharray:none;stroke-opacity:1"
         d="m 206.6222,-4474.0193 3.97179,-42.734"
         id="path7879-1-1-7" />
      <path
         style="fill:none;stroke:#000000;stroke-width:2;stroke-dasharray:none;stroke-opacity:1"
         d="m 214.34513,-4474.2635 1.54459,-42.4898"
         id="path7881-0-5-2" />
      <path
         style="fill:none;stroke:#000000;stroke-width:2;stroke-dasharray:none;stroke-opacity:1"
         d="m 204.85696,-4504.7878 16.76979,-0.7325"
         id="path7883-5-3-0" />
      <path
         style="fill:none;stroke:#000000;stroke-width:2;stroke-dasharray:none;stroke-opacity:1"
         d="m 202.20909,-4491.6013 20.96224,-3.4187"
         id="path7885-6-7-5" />
      <path
         style="fill:none;stroke:#000000;stroke-width:2;stroke-dasharray:none;stroke-opacity:1"
         d="m 220.08217,-4536.7772 c 0,0 3.30982,7.57 5.29572,12.9423 1.9859,5.3723 3.30983,17.3378 3.30983,17.3378"
         id="path7887-1-6-9" />
    </g>
    <path
       style="fill:#ffffff;stroke:none;stroke-width:0.54973;stroke-linecap:butt;stroke-linejoin:miter;stroke-miterlimit:4;stroke-dasharray:none;stroke-opacity:1"
       d="m -161.86835,2.4881105 c 0,0 17.9935,-5.7165345 29.14893,-6.1069537 11.18226,-0.3903927 37.70323,0 49.797223,0.8086989 12.099356,0.7807854 57.70524,4.7684266 72.132234,2.78854959 14.4269615,-2.00776419 40.953329,-2.54484189 49.79454,-6.14206389 8.841211,-3.5693614 10.702237,-7.9752564 19.546147,-5.5770994 8.84121,2.3981572 15.821395,4.9429725 19.543447,8.512334 3.724752,3.59722199 13.032555,5.577099 13.032555,5.577099 v 4.405921 c 0,0 -6.516264,1.9798771 -14.893581,-3.5972485 C 67.855855,-2.4197516 53.431565,-6.944444 45.984762,-6.1636586 38.537985,-5.3549861 18.99451,-7.9968507 7.359051,-3.228424 -4.2763714,1.5678896 -13.117609,7.1449887 -26.614068,5.5555044 -40.107852,3.9660465 -65.703675,-6.7977855 -79.200142,-7.1881782 c -13.483061,-0.4182798 -57.461208,6.99926099 -67.490378,9.1464605 -3.00339,0.64135 -16.54544,7.975256 -15.20464,7.975256"
       id="path6389-8-8-2-7-8-3-1" />
    <ellipse
       style="opacity:0.99;fill:#f9f9f9;fill-opacity:1;stroke:none;stroke-width:0.264583"
       id="path6473-5-40-49-3-7-1-9-4"
       cx="52.337433"
       cy="4.3890562"
       rx="2.8730607"
       ry="2.9876571" />
    <ellipse
       style="opacity:0.99;fill:#f9f9f9;fill-opacity:1;stroke:none;stroke-width:0.264583"
       id="path6473-7-5-8-6-8-8-3-8"
       cx="61.937557"
       cy="14.100479"
       rx="2.8730607"
       ry="2.9876571" />
    <ellipse
       style="opacity:0.99;fill:#f9f9f9;fill-opacity:1;stroke:none;stroke-width:0.175504"
       id="path6473-1-02-8-2-1-8-1-2"
       cx="43.547173"
       cy="7.3016691"
       rx="1.7238364"
       ry="2.1909385" />
  </g>
</svg>
