<?xml version="1.0" encoding="UTF-8" standalone="no"?>
<!-- Created with Inkscape (http://www.inkscape.org/) -->

<svg
   width="252.40308mm"
   height="63.498966mm"
   viewBox="0 0 252.40307 63.498966"
   version="1.1"
   id="svg4686"
   sodipodi:docname="p3.svg"
   inkscape:version="1.2.2 (732a01da63, 2022-12-09)"
   xmlns:inkscape="http://www.inkscape.org/namespaces/inkscape"
   xmlns:sodipodi="http://sodipodi.sourceforge.net/DTD/sodipodi-0.dtd"
   xmlns="http://www.w3.org/2000/svg"
   xmlns:svg="http://www.w3.org/2000/svg">
  <sodipodi:namedview
     id="namedview6875"
     pagecolor="#ffffff"
     bordercolor="#000000"
     borderopacity="0.25"
     inkscape:showpageshadow="2"
     inkscape:pageopacity="0.0"
     inkscape:pagecheckerboard="0"
     inkscape:deskcolor="#d1d1d1"
     inkscape:document-units="mm"
     showgrid="false"
     inkscape:zoom="1.390666"
     inkscape:cx="402.68476"
     inkscape:cy="126.91761"
     inkscape:window-width="2880"
     inkscape:window-height="1514"
     inkscape:window-x="3829"
     inkscape:window-y="-11"
     inkscape:window-maximized="1"
     inkscape:current-layer="svg4686" />
  <defs
     id="defs4683" />
  <path
     id="rect5020-8-5-86-7-6-0-2-7-8-7-52-6-6-38-8-5-6-2-2-2-52-6-8-5-6-7-8-5"
     style="color:#000000;display:inline;overflow:visible;visibility:visible;fill:#843c7a;fill-opacity:1;stroke:none;stroke-width:0.515414;marker:none;enable-background:accumulate"
     d="m 165.19187,36.96463 c 11.57486,-0.66786 23.3966,-0.721539 34.67332,-2.52088 -0.40423,-0.38574 -7.48945,-0.153745 -10.35745,-0.235118 -8.30398,0.02736 -16.84431,0.461267 -24.31587,2.755998 z" />
  <path
     id="path2122"
     style="color:#000000;display:inline;overflow:visible;visibility:visible;fill:#843c7a;fill-opacity:1;stroke:none;stroke-width:0.515414;marker:none;enable-background:accumulate"
     d="m 111.34916,37.468559 c 12.14792,1.982088 24.82321,5.045099 37.59771,3.087875 5.65851,-0.789511 10.92338,-2.261945 16.245,-3.591804 -9.89579,0.426819 -19.72861,1.444495 -29.68914,1.119649 -8.05778,-0.08942 -16.11202,-0.309152 -24.15357,-0.61572 z" />
  <path
     id="path2118"
     style="color:#000000;display:inline;overflow:visible;visibility:visible;fill:#843c7a;fill-opacity:1;stroke:none;stroke-width:0.515414;marker:none;enable-background:accumulate"
     d="M 0.21434418,43.386481 C 4.1198612,41.865675 8.3689352,40.657223 12.624644,39.505865 c 3.004153,-0.817451 6.368502,-0.943734 9.575048,-1.347198 8.778354,-0.92238 17.583367,-1.760139 26.409631,-2.512003 -7.274231,-0.02875 -14.562486,-0.12659 -21.82623,0.141222 -9.04609,0.549425 -17.8788348,1.917638 -26.56874882,3.436166 0,1.387476 0,2.774953 0,4.162429 z" />
  <path
     id="path2114"
     style="color:#000000;display:inline;overflow:visible;visibility:visible;fill:#843c7a;fill-opacity:1;stroke:none;stroke-width:0.515414;marker:none;enable-background:accumulate"
     d="m 252.29767,39.056968 c -5.42758,-0.684538 -10.61027,-2.017227 -14.6831,-4.241617 -6.13394,-2.152648 -13.16829,-3.342162 -20.13183,-4.188137 -6.4158,-0.514762 -11.17836,2.612345 -16.90904,3.665422 6.01479,0.09345 12.11918,-0.493237 17.99373,0.584164 8.11998,1.07257 15.65812,3.212079 22.65907,5.780899 2.98617,0.712263 9.16191,2.209051 11.07117,0.66166 0,-0.754125 0,-1.508265 0,-2.262391 z" />
  <path
     id="path2112"
     style="color:#000000;display:inline;overflow:visible;visibility:visible;fill:#ff6a56;fill-opacity:1;stroke:none;stroke-width:0.515414;marker:none;enable-background:accumulate"
     d="M 252.29767,23.025364 C 195.99759,31.475521 137.47695,30.863701 80.05356,28.32909 53.484914,27.321581 26.844897,25.967203 0.21434418,26.873902 V 39.224053 C 15.492643,35.986218 31.734969,34.992463 47.815777,35.353052 c 16.83829,-0.76326 34.194062,-3.87716 50.738286,-0.207097 10.202027,2.237338 20.932247,2.833466 31.682137,2.850904 11.65672,0.08417 23.5353,0.0171 34.95908,-1.388672 9.84813,-2.510547 20.53257,-2.902003 31.05211,-2.551723 9.92743,0.324066 17.41403,-6.037106 27.61083,-2.698187 9.13045,1.237294 16.01713,4.838691 24.33129,7.080296 6.06486,1.437717 3.65578,-2.863962 4.10816,-4.965746 z" />
  <g
     style="fill:#350931;fill-opacity:1;stroke-width:2.03458"
     transform="matrix(0.13039441,0,0,0.12969184,-388.96078,-74.59151)"
     id="g5966-9-9-4-7-8">
    <path
       style="fill:#350931;fill-opacity:1;stroke:#000000;stroke-width:4.06918;stroke-linecap:butt;stroke-linejoin:miter;stroke-miterlimit:4;stroke-dasharray:none;stroke-opacity:1"
       d="m 3387.3,766.21 -16.9,23.77 c 0,0 8.7,8.47 12.7,10.2 3.9,1.74 4.2,0.67 6.4,2.78 2.2,2.12 16.2,12.29 18.1,19.05 0.7,20.31 -6.1,45.61 11.2,61.66 12.9,10.83 35.8,27.59 52,20.41 6.8,-3.3 41,-37.67 42,-42.33 -0.4,-17.47 -11.1,-37.43 -23.5,-50.41 -18.7,-21.77 -38.8,-7.45 -60.9,-10.66 -11.1,-2.8 -17.4,-9.44 -25.1,-16.98 0,0 1.7,-1.27 -2.2,-5.15 -4,-3.88 -13.8,-12.34 -13.8,-12.34 z m 64.5,41.79 c 0.9,-1 2.6,-1.71 5.3,-1.96 6,-1.87 9.2,-0.85 18.2,2.97 11.7,5.12 4.1,24.64 -14.1,14.46 -4.6,-3.02 -12.9,-11.51 -9.4,-15.47 z"
       id="path6550-74-5-8-7-1" />
    <path
       style="fill:#350931;fill-opacity:1;stroke:#000000;stroke-width:4.06918;stroke-linecap:butt;stroke-linejoin:miter;stroke-miterlimit:4;stroke-dasharray:none;stroke-opacity:1"
       d="m 3387.3,800.85 c 0,0 2.1,-2.89 4.3,-5.77 2.1,-2.89 3.8,-3.27 3.8,-3.27"
       id="path6552-8-0-7-8-6" />
    <path
       style="fill:#350931;fill-opacity:1;stroke:#000000;stroke-width:4.06918;stroke-linecap:butt;stroke-linejoin:miter;stroke-miterlimit:4;stroke-dasharray:none;stroke-opacity:1"
       d="m 3361.5,781.23 c 2.2,-2.8 4.2,-8.39 10.9,-13.78 6.8,-5.39 12.8,-8.49 14.3,-7 1.6,1.5 5.2,9.53 5.2,9.53 0,0 0.2,0.57 -3,-0.46 -6.9,-2.18 -3.7,1.9 -4.5,4.6 -0.8,2.49 -7.7,0.42 -7,5.14 0.9,6.28 -6,4.06 -6,5.63 -0.1,2.09 0.1,6.57 0.1,6.57 0,0 -3.8,-0.2 -5.6,-2.45 -1.8,-2.25 -4.4,-7.78 -4.4,-7.78 z"
       id="path6556-1-3-4-5-4" />
    <path
       style="fill:#350931;fill-opacity:1;stroke:#000000;stroke-width:4.06918;stroke-linecap:butt;stroke-linejoin:miter;stroke-miterlimit:4;stroke-dasharray:none;stroke-opacity:1"
       d="m 3400.4,804.22 c 6.1,3.97 12,9.2 13.1,13.22 1,4.03 0.7,18.68 1.1,27.01 -0.2,24.15 15.5,39.99 35,49.06 6.4,2.87 28.4,-3.36 34.1,-14.58"
       id="path6558-79-9-5-5-8" />
  </g>
  <path
     id="path2120"
     style="color:#000000;display:inline;overflow:visible;visibility:visible;fill:#843c7a;fill-opacity:1;stroke:none;stroke-width:0.515414;marker:none;enable-background:accumulate"
     d="m 48.609323,35.646664 c 1.761652,0.01001 3.381944,0.0071 5.176428,0.02343 4.769882,0.04359 9.568121,0.108758 13.929899,0.192623 4.361776,0.08387 8.286925,0.186239 11.310419,0.303799 3.024836,0.113512 8.143973,0.34346 14.346412,0.606703 5.348512,0.226995 11.664949,0.472421 17.976679,0.695338 -0.77245,-0.135716 -1.53288,-0.268844 -2.30683,-0.404174 -2.44318,-0.427157 -4.88629,-0.84876 -7.28225,-1.242839 -2.395953,-0.394063 -4.744861,-0.760387 -6.999052,-1.07697 -2.254195,-0.316568 -4.413758,-0.583303 -6.431651,-0.777973 -1.008946,-0.09734 -1.982404,-0.176746 -2.914549,-0.235287 -0.932146,-0.05854 -1.822977,-0.09639 -2.666505,-0.110589 -0.84269,-0.01523 -1.804392,-0.01246 -2.869592,0.006 -1.065199,0.01853 -2.233983,0.05302 -3.490227,0.101573 -2.512483,0.0971 -5.375711,0.250488 -8.463566,0.445327 -3.087854,0.19484 -6.400315,0.431034 -9.811802,0.693831 -3.115998,0.240041 -6.318735,0.506207 -9.503813,0.779187 z" />
  <circle
     style="fill:#843c7a;fill-opacity:1;stroke:none;stroke-width:0.529167"
     id="path7130"
     cx="56.176167"
     cy="39.754745"
     r="1.3229166" />
  <circle
     style="fill:#843c7a;fill-opacity:1;stroke:none;stroke-width:0.529167"
     id="path7130-0"
     cx="45.043369"
     cy="39.032276"
     r="1.3229166" />
  <circle
     style="fill:#843c7a;fill-opacity:1;stroke:none;stroke-width:0.529167"
     id="path7130-6"
     cx="49.090633"
     cy="37.009346"
     r="0.66145831" />
</svg>
